<?xml version="1.0" encoding="UTF-8" standalone="no"?>
<svg
   xmlns:dc="http://purl.org/dc/elements/1.1/"
   xmlns:cc="http://creativecommons.org/ns#"
   xmlns:rdf="http://www.w3.org/1999/02/22-rdf-syntax-ns#"
   xmlns:svg="http://www.w3.org/2000/svg"
   xmlns="http://www.w3.org/2000/svg"
   xmlns:sodipodi="http://sodipodi.sourceforge.net/DTD/sodipodi-0.dtd"
   xmlns:inkscape="http://www.inkscape.org/namespaces/inkscape"
   width="1920px"
   height="4320px"
   viewBox="0 0 1920 4320"
   version="1.1"
   id="SVGRoot"
   sodipodi:docname="Background.svg"
   inkscape:version="1.0.1 (3bc2e813f5, 2020-09-07)">
  <defs
     id="defs877" />
  <sodipodi:namedview
     id="base"
     pagecolor="#ffffff"
     bordercolor="#666666"
     borderopacity="1.0"
     inkscape:pageopacity="0.0"
     inkscape:pageshadow="2"
     inkscape:zoom="0.24748738"
     inkscape:cx="2156.29"
     inkscape:cy="3264.2904"
     inkscape:document-units="px"
     inkscape:current-layer="layer1"
     inkscape:document-rotation="0"
     showgrid="false"
     inkscape:window-width="2560"
     inkscape:window-height="1017"
     inkscape:window-x="-8"
     inkscape:window-y="-8"
     inkscape:window-maximized="1" />
  <metadata
     id="metadata880">
    <rdf:RDF>
      <cc:Work
         rdf:about="">
        <dc:format>image/svg+xml</dc:format>
        <dc:type
           rdf:resource="http://purl.org/dc/dcmitype/StillImage" />
        <dc:title />
      </cc:Work>
    </rdf:RDF>
  </metadata>
  <g
     inkscape:label="Layer 1"
     inkscape:groupmode="layer"
     id="layer1">
    <path
       id="path896"
       style="fill:#ff065d;stroke-width:0.711293"
       d="m 2750.5411,533.41234 c -310.109,1.7e-4 -822.0109,368.19215 -1132.2578,100.6135 -389.9921,-305.91156 -737.5196,131.3876 -410.5771,346.4167 357.8574,205.18656 213.6403,220.89596 313.5474,354.78876 159.9772,214.3973 429.6486,93.9868 566.6342,232.9094 214.1435,217.1716 496.9406,168.7522 637.2347,307.529 96.7742,95.7276 727.2092,251.4066 918.0245,370.3097 218.9217,-225.0595 338.2105,-504.8179 338.211,-793.1788 -3e-4,-336.4847 -162.3208,-659.18799 -451.253,-897.1186 -288.9323,-237.93067 -370.9521,-22.26942 -779.5639,-22.26966 z"
       sodipodi:nodetypes="cccsssccsc" />
    <path
       id="path1496-1"
       style="fill:#3bb49c;fill-opacity:1;stroke-width:45.0724;stroke-miterlimit:4;stroke-dasharray:none"
       d="m 695.06268,1832.1965 c 264.34046,184.2535 -652.333226,394.3115 -981.71884,411.1037 -126.13383,0 -247.10163,-66.9069 -336.2917,-186.0021 -89.19014,-119.0952 -139.29657,-280.6229 -139.29657,-449.0489 0,-168.426 50.1065,-329.9537 139.29663,-449.0489 89.19007,-119.0951 157.79946,-160.40811 283.93329,-160.40811 126.13384,0 248.10435,420.13281 359.10279,465.96271 64.12819,26.4777 242.7127,-22.2866 326.31368,113.6688 40.96132,66.613 249.54751,184.667 348.66072,253.7728 z"
       sodipodi:nodetypes="ccssssssc" />
    <path
       id="path1522"
       style="fill:#ffd64a;fill-opacity:1;stroke-width:54.5144;stroke-miterlimit:4;stroke-dasharray:none"
       d="m 3373.7372,2878.3469 c 0,221.5627 -110.89,434.0508 -308.2756,590.7193 -197.3859,156.6685 -465.0982,244.6839 -744.2436,244.6839 -279.1454,0 -189.6208,-378.0049 -744.2434,-244.6839 -245.6692,59.0543 -378.6405,-331.5654 -378.6405,-553.1281 0,-221.5627 240.7944,-369.6087 438.1801,-526.2772 197.3855,-156.6686 346.0189,233.2617 955.3378,-378.9383 196.1381,-197.0656 276.2237,120.2364 473.6096,276.9049 197.3856,156.6685 308.2756,369.1566 308.2756,590.7194 z"
       sodipodi:nodetypes="sssssssss" />
    <path
       id="path1522-2"
       style="fill:#4be7c8;fill-opacity:1;stroke-width:61.8876;stroke-miterlimit:4;stroke-dasharray:none"
       d="m -1557.0412,4092.8734 c 1.0062,73.7748 21.2986,144.7055 72.5202,210.8158 159.1724,205.4396 575.54569,504.292 783.91793,332.511 C -230.1821,4248.3873 1696.7754,4469.6077 1981.7478,4336.6371 2138.5171,4363.1992 847.06704,4084.3321 713.68327,4181.6 586.52478,4283.8772 229.16437,4052.5308 137.47779,3934.1934 45.791229,3815.8561 84.544404,3654.1469 235.7996,3566.8503 c 198.02438,-86.9421 178.26414,-469.8935 -6.0249,-384.2982 -548.7087,465.6842 -412.24653,48.5601 -669.3515,137.5175 -425.90989,159.9288 -757.2352,514.68 -1117.4644,772.8038 z"
       sodipodi:nodetypes="cssccscccc" />
  </g>
</svg>
